# xmcd
#
# Track frame offsets:
#	150
#	14815
#	34004
#	54054
#	70771
#	92258
#	107525
#	127923
#	151519
#	169350
#	187499
#	208535
#
# Disc length: 3082 seconds
#
# Revision: 0
# Processed by: cddbd v1.5.2PL0 Copyright (c) Steve Scherf et al.
# Submitted via: dBpowerAMP V4.0
#
DISCID=940c080c
DTITLE=Various Artist - The Night Life
DYEAR=1900
DGENRE=Country
TTITLE0=The Working Cowboy Band - A-11
TTITLE1=The Working Cowboy Band -  - Buck Owens Medley
TTITLE2=The Working Cowboy Band -  - I Fall Into Pieces
TTITLE3=The Working Cowboy Band -  - Only Daddy That'll Walk The Line
TTITLE4=The Working Cowboy Band -  - My Heroes Have Always Been Cowboys
TTITLE5=The Working Cowboy Band -  - There Stands The Glass
TTITLE6=The Working Cowboy Band -  - Don't Touch Me
TTITLE7=The Working Cowboy Band -  - Working Man's Blues
TTITLE8=The Working Cowboy Band -  - Georgia On A Fast Train
TTITLE9=The Working Cowboy Band -  - Don't Worry About Me
TTITLE10=The Working Cowboy Band -  - Let's Chase Each Other Around The Room Tonight
TTITLE11=The Working Cowboy Band -  - The Night Life
EXTD=
EXTT0=
EXTT1=
EXTT2=
EXTT3=
EXTT4=
EXTT5=
EXTT6=
EXTT7=
EXTT8=
EXTT9=
EXTT10=
EXTT11=
PLAYORDER=
